<?xml version="1.0" standalone="no"?>
<!DOCTYPE svg PUBLIC "-//W3C//DTD SVG 20010904//EN"
 "http://www.w3.org/TR/2001/REC-SVG-20010904/DTD/svg10.dtd">
<svg version="1.0" xmlns="http://www.w3.org/2000/svg"
 width="952.000000pt" height="952.000000pt" viewBox="0 0 952.000000 952.000000"
 preserveAspectRatio="xMidYMid meet">
<metadata>
Created by potrace 1.11, written by Peter Selinger 2001-2013
</metadata>
<g transform="translate(0.000000,952.000000) scale(0.100000,-0.100000)"
fill="#000000" stroke="none">
<path d="M6500 9471 c-58 -10 -172 -35 -255 -55 -82 -20 -217 -52 -300 -71
-82 -18 -199 -45 -258 -60 -107 -26 -430 -101 -832 -195 -115 -27 -365 -85
-555 -130 -190 -45 -403 -95 -475 -111 -299 -68 -466 -112 -458 -118 4 -4 31
-25 58 -47 315 -245 571 -601 695 -968 79 -232 107 -382 116 -616 11 -272 -19
-487 -106 -752 -242 -735 -872 -1277 -1650 -1420 -159 -29 -523 -32 -684 -5
-351 59 -732 223 -966 417 -25 20 -51 40 -59 45 -16 9 -20 28 70 -355 38 -162
97 -412 130 -555 34 -143 87 -370 119 -505 32 -135 83 -353 114 -485 30 -132
85 -366 121 -520 37 -154 95 -404 131 -555 339 -1447 315 -1356 391 -1520 197
-424 597 -740 1066 -842 86 -18 134 -22 302 -22 224 -1 233 0 605 89 124 29
362 85 530 124 168 40 370 87 450 106 135 32 354 84 875 205 116 27 327 77
470 110 143 34 373 88 510 120 238 55 452 105 1090 255 154 36 366 86 471 110
206 47 317 82 434 137 308 143 569 402 720 713 101 209 138 364 146 610 7 210
-2 272 -91 650 -36 154 -95 404 -131 555 -124 529 -184 787 -249 1065 -36 154
-80 341 -97 415 -18 74 -35 139 -40 144 -4 6 -39 -20 -80 -60 -218 -210 -534
-389 -834 -474 -412 -116 -786 -118 -1184 -4 -744 212 -1315 819 -1484 1576
-45 200 -59 478 -36 696 38 363 189 739 418 1042 78 103 259 288 362 369 319
253 686 407 1080 452 188 21 621 -1 716 -38 62 -23 -125 148 -261 240 -157
106 -349 188 -537 229 -137 29 -426 34 -568 9z"/>
<path d="M1996 8230 c-259 -30 -516 -148 -705 -326 -241 -226 -372 -517 -388
-859 -7 -154 -7 -155 117 -155 48 0 584 -16 1191 -35 781 -25 1106 -32 1113
-25 7 7 11 77 11 193 -1 212 -16 291 -90 467 -159 376 -488 642 -895 724 -99
19 -256 27 -354 16z"/>
<path d="M7261 8139 c-272 -25 -519 -145 -727 -353 -119 -120 -200 -237 -260
-381 -70 -163 -85 -236 -91 -421 l-6 -162 144 -6 c79 -3 311 -11 514 -16 475
-12 631 -17 1248 -36 280 -9 512 -13 515 -9 13 12 18 179 10 280 -41 482 -363
889 -832 1051 -141 49 -341 69 -515 53z"/>
</g>
</svg>
